<svg width="197" height="129" viewBox="0 0 197 129" fill="none" xmlns="http://www.w3.org/2000/svg">
<path d="M0.366887 67.3245L55.3543 11.927L71.8636 17.7315L80.272 95.4183L59.8948 88.2539L58.3055 67.4489L63.9569 75.7959L25.3722 62.23L34.9094 59.2231L20.6498 74.4557L0.366887 67.3245ZM56.2647 35.5672L38.3552 55.4526L37.3824 49.1745L62.7596 58.0969L58.355 62.4843L56.7364 35.7331L56.2647 35.5672ZM87.0089 76.9048L92.3159 61.8105L124.391 73.0879L119.084 88.1821L87.0089 76.9048ZM120.466 109.55L125.706 94.6444L171.667 65.2233L169.743 70.6949L138.045 59.5503L143.849 43.0409L194.887 60.9852L189.646 75.8907L143.686 105.312L145.61 99.8402L178.817 111.516L173.012 128.025L120.466 109.55Z" fill="#AC25FF"/>
</svg>
